<svg width="270" height="270" viewBox="0 0 270 270" fill="none" xmlns="http://www.w3.org/2000/svg">
<g clip-path="url(#clip0_7402_13046)">
<rect width="270" height="270" rx="20" fill="#784DCE"/>
<path d="M113.699 129.844V127.836C123.087 126.065 127.634 119.215 127.634 108.941C127.634 95.1829 119.072 87.1524 99.2911 87.1524H63.3901V171H100.295C120.253 171 129.76 162.792 129.76 148.916C129.76 136.93 123.146 131.733 113.699 129.844ZM81.1634 100.556H96.9292C105.963 100.556 109.92 103.922 109.92 111.657C109.92 118.979 105.963 122.935 96.9292 122.935H81.1634V100.556ZM81.1634 157.596V135.276H97.992C107.381 135.276 112.045 138.524 112.045 146.377C112.045 154.585 107.381 157.596 97.992 157.596H81.1634ZM172.255 100.438H188.73L206.739 76.6419H193.335L181.467 90.2819H180.227L168.004 76.6419H153.832L172.255 100.438ZM145.093 171H200.067V157.537H177.688V144.251C177.688 129.371 183.888 122.522 199.004 122.522C203.846 122.522 208.038 123.171 212.349 124.116L214.12 108.291C210.341 107.229 206.267 106.579 201.779 106.579C188.789 106.579 181.998 113.192 178.691 123.585H177.451L175.857 108.35H146.983V121.813H159.973V157.537H145.093V171Z" fill="#F7F446"/>
</g>
<defs>
<clipPath id="clip0_7402_13046">
<rect width="270" height="270" fill="white"/>
</clipPath>
</defs>
</svg>
